<?xml version="1.0" standalone="no"?>
<!DOCTYPE svg PUBLIC "-//W3C//DTD SVG 20010904//EN"
 "http://www.w3.org/TR/2001/REC-SVG-20010904/DTD/svg10.dtd">
<svg version="1.0" xmlns="http://www.w3.org/2000/svg"
 width="345.000000pt" height="345.000000pt" viewBox="0 0 345.000000 345.000000"
 preserveAspectRatio="xMidYMid meet">
<metadata>
Created by potrace 1.11, written by Peter Selinger 2001-2013
</metadata>
<g transform="translate(0.000000,345.000000) scale(0.100000,-0.100000)"
fill="#000000" stroke="none">
<path d="M2145 2246 l-100 -53 -3 -52 -3 -51 -40 0 -39 0 0 -74 0 -75 38 -3
37 -3 5 -155 c4 -131 8 -161 24 -185 11 -17 26 -34 35 -40 12 -7 -2 -11 -54
-15 l-70 -5 -3 -127 -3 -126 -44 25 c-28 15 -68 27 -103 30 -111 10 -208 -69
-234 -188 -14 -68 -31 -68 -47 -3 -15 58 -85 135 -149 162 -70 30 -174 38
-251 18 -108 -28 -182 -94 -211 -192 l-12 -39 -101 0 -102 0 -5 220 -5 220
-84 3 -83 3 47 31 c46 31 104 108 105 139 0 13 -13 18 -57 23 -32 4 -77 9
-100 13 -27 3 -43 1 -43 -5 0 -6 -11 -24 -25 -40 -49 -58 -146 -47 -181 20
-22 42 -23 133 -1 174 40 77 173 80 199 4 6 -18 198 7 198 25 0 7 -15 35 -32
61 -25 37 -48 57 -93 79 -57 28 -67 30 -180 30 -110 0 -124 -2 -170 -27 -103
-54 -147 -132 -147 -260 0 -66 5 -89 27 -134 52 -106 136 -148 302 -149 l103
0 0 -212 0 -213 -217 -2 -218 -3 -3 -52 -3 -53 220 0 221 0 0 -110 0 -110 110
0 110 0 0 110 0 110 103 0 103 0 23 -55 c15 -36 40 -70 73 -100 67 -60 130
-79 252 -73 77 3 99 8 145 33 64 35 106 83 129 148 9 26 22 47 29 47 6 0 19
-24 27 -53 34 -117 108 -177 218 -177 65 0 105 16 156 63 l22 20 0 -36 0 -37
100 0 100 0 0 110 0 110 25 0 25 0 0 -110 0 -110 105 0 105 0 0 110 c0 100 2
110 18 110 13 0 25 -17 41 -55 30 -72 100 -136 176 -159 88 -28 215 -20 290
19 67 34 119 94 135 155 l11 40 155 0 155 0 -3 53 -3 52 -150 2 -149 1 -16 48
c-22 64 -83 132 -145 160 -105 48 -266 39 -357 -21 -42 -28 -90 -93 -107 -147
-9 -26 -18 -38 -31 -38 -18 0 -20 10 -22 113 l-3 112 -102 3 -102 3 -3 -118
c-3 -110 -4 -118 -23 -118 -19 0 -20 8 -23 213 l-2 212 25 0 c24 0 25 -2 25
-65 l0 -65 105 0 104 0 3 72 3 72 81 -1 81 -1 5 152 c6 165 18 212 62 241 18
12 36 15 63 10 l38 -6 28 63 c15 35 27 68 27 75 0 15 -54 33 -98 33 -40 0 -92
-31 -116 -69 l-15 -26 -1 43 0 42 -100 0 -100 0 0 -276 c0 -257 -1 -275 -17
-272 -11 2 -19 14 -21 28 -12 115 -11 113 -48 106 -18 -4 -43 -2 -54 4 -19 10
-20 19 -18 133 l3 122 58 3 57 3 0 74 0 75 -60 0 -59 0 -3 105 -3 104 -100
-53z m-844 -1085 c48 -49 40 -59 -50 -63 -43 -2 -86 -2 -95 0 -24 5 -19 26 13
61 40 42 90 43 132 2z m1570 0 c50 -51 41 -59 -66 -63 -109 -3 -119 6 -64 61
41 42 89 42 130 2z m-957 9 c14 -5 32 -23 41 -40 l16 -30 -86 0 c-88 0 -94 4
-74 41 17 33 60 46 103 29z m-584 -196 c0 -25 -56 -74 -84 -74 -39 0 -76 21
-92 51 -8 16 -14 30 -14 34 0 3 43 5 95 5 80 0 95 -3 95 -16z m630 7 c0 -23
-15 -43 -41 -56 -39 -21 -53 -19 -88 11 -52 43 -42 54 49 54 44 0 80 -4 80 -9z
m940 -7 c0 -25 -56 -74 -84 -74 -39 0 -76 21 -92 51 -8 16 -14 30 -14 34 0 3
43 5 95 5 80 0 95 -3 95 -16z"/>
<path d="M903 2086 c-136 -43 -214 -161 -200 -305 2 -32 14 -75 25 -97 25 -48
84 -108 124 -125 15 -6 28 -14 28 -18 0 -3 -30 -6 -67 -6 l-68 0 0 -105 0
-105 53 -3 c39 -2 52 -7 52 -19 0 -17 -66 -87 -89 -95 -13 -4 -13 -9 -3 -34 7
-16 19 -37 27 -47 13 -18 15 -18 52 2 52 26 109 91 122 138 6 21 11 88 11 148
l0 110 76 2 c173 3 288 120 287 291 -1 175 -124 283 -317 281 -39 0 -90 -6
-113 -13z m157 -141 c41 -21 60 -63 60 -135 0 -74 -20 -117 -63 -135 -43 -18
-82 -9 -112 26 -60 72 -40 207 36 246 31 16 44 16 79 -2z"/>
<path d="M1666 2085 c-21 -7 -53 -27 -70 -44 -18 -17 -35 -31 -39 -31 -4 0 -7
18 -7 40 l0 40 -95 0 -95 0 0 -279 0 -279 88 0 c133 -1 122 -16 122 171 0 142
2 166 19 193 33 54 111 53 131 -1 6 -15 10 -102 10 -194 l0 -168 105 -1 105
-1 0 200 c0 218 -8 271 -47 314 -50 53 -143 70 -227 40z"/>
<path d="M3015 2091 c-83 -21 -159 -83 -194 -161 -24 -53 -28 -164 -7 -223 55
-153 251 -225 440 -161 54 19 123 82 151 139 29 59 28 204 -2 261 -31 57 -102
117 -164 137 -53 17 -168 21 -224 8z m144 -146 c38 -19 61 -71 61 -137 0 -70
-26 -119 -73 -136 -30 -12 -39 -12 -70 3 -44 21 -67 67 -67 135 0 62 20 109
58 132 33 21 55 22 91 3z"/>
</g>
</svg>
